<svg width="1024" height="1024" viewBox="0 0 1024 1024" fill="none" xmlns="http://www.w3.org/2000/svg">
<path d="M1023.95 512C1023.95 653.416 1028.7 818.1 923.444 923.712C818.189 1029.32 653.413 1023.95 512.001 1023.95C370.586 1023.95 205.902 1028.7 100.288 923.444C-5.32441 818.188 0.0457579 653.416 0.0457579 512C0.0457579 370.588 -4.60837 205.902 100.646 100.289C205.902 -5.32439 370.674 0.0457572 512.001 0.0457572C653.325 0.0457572 818.097 -4.60838 923.712 100.647C1029.32 205.902 1023.95 370.676 1023.95 512Z" fill="#12262B"/>
<path d="M569.723 244.384H242.234C213.267 244.384 189.786 267.866 189.786 296.832C189.786 325.8 213.267 349.282 242.234 349.282H569.723C598.69 349.282 622.172 325.8 622.172 296.832C622.172 267.866 598.69 244.384 569.723 244.384Z" fill="white"/>
<path d="M676.95 459.548H349.46C320.495 459.548 297.012 483.03 297.012 511.994C297.012 540.962 320.495 564.444 349.46 564.444H676.95C705.918 564.444 729.4 540.962 729.4 511.994C729.4 483.03 705.918 459.548 676.95 459.548Z" fill="white"/>
<path d="M569.723 674.801H456.681C427.716 674.801 404.234 698.283 404.234 727.247C404.234 756.215 427.716 779.697 456.681 779.697H569.723C598.69 779.697 622.172 756.215 622.172 727.247C622.172 698.283 598.69 674.801 569.723 674.801Z" fill="white"/>
<path d="M834.292 296.832C834.292 267.866 810.81 244.384 781.843 244.384C752.875 244.384 729.394 267.866 729.394 296.832C729.394 325.8 752.875 349.282 781.843 349.282C810.81 349.282 834.292 325.8 834.292 296.832Z" fill="white"/>
</svg>
